<?xml version="1.0" standalone="no"?>
<!DOCTYPE svg PUBLIC "-//W3C//DTD SVG 20010904//EN"
 "http://www.w3.org/TR/2001/REC-SVG-20010904/DTD/svg10.dtd">
<svg version="1.0" xmlns="http://www.w3.org/2000/svg"
 width="256.000000pt" height="256.000000pt" viewBox="0 0 256.000000 256.000000"
 preserveAspectRatio="xMidYMid meet">

<g transform="translate(0.000000,256.000000) scale(0.100000,-0.100000)"
fill="#000000" stroke="none">
<path d="M1195 2554 c-317 -30 -586 -149 -799 -353 -189 -181 -337 -463 -377
-716 -15 -99 -15 -316 0 -410 40 -241 170 -501 340 -679 181 -189 463 -337
716 -377 103 -15 307 -15 410 0 253 40 535 188 716 377 170 178 300 438 340
679 15 94 15 311 0 410 -49 313 -242 628 -505 823 -141 106 -379 206 -546 231
-80 12 -241 20 -295 15z m231 -205 c230 -32 425 -125 593 -284 300 -284 410
-692 295 -1094 -64 -221 -202 -417 -397 -562 -355 -265 -861 -277 -1231 -32
-346 230 -532 641 -475 1049 32 230 125 425 284 593 242 256 586 378 931 330z"/>
<path d="M970 1475 l-305 -305 100 -100 100 -100 207 207 208 208 208 -208
207 -207 100 100 100 100 -305 305 c-168 168 -307 305 -310 305 -3 0 -142
-137 -310 -305z"/>
</g>
</svg>
